<svg id="Layer_1" xmlns="http://www.w3.org/2000/svg" viewBox="0 0 12.8 13.8"><style>.st0{fill-rule:evenodd;clip-rule:evenodd;fill:url(#SVGID_1_)}</style><linearGradient id="SVGID_1_" gradientUnits="userSpaceOnUse" x1="6.394" y1="13.761" x2="6.394" y2=".021"><stop offset="0" stop-color="#4dc3e4"/><stop offset="1" stop-color="#a1e9d9"/></linearGradient><path class="st0" d="M11.9 13.8H.9c-.5 0-.9-.4-.9-.9V1.7C0 1.2.4.8.9.8h2.6V0h.9v.9h4.3V0h.9v.9h3c.5 0 .4.4.4.9V13c-.2.4-.6.8-1.1.8zm0-11.6c0-.2-.2-.4-.4-.4H9.4v.9h-.9v-1H4.3v.9h-.9v-.9H1.3c-.3 0-.4.2-.4.5v1.3H12V2.2zm0 2.1H.9v8.2c0 .2.2.4.4.4h10.2c.2 0 .4-.2.4-.4V4.3zm-3.4 7.8h2.6V9.5H8.5v2.6zm.9-.9h.9v-.9h-.9v.9zm-.9-2.6h2.6V6H8.5v2.6zm.9-.8h.9v-.9h-.9v.9zm-4.3 4.3h2.6V9.5H5.1v2.6zm.9-.9h.9v-.9H6v.9zm-.9-2.6h2.6V6H5.1v2.6zm.9-.8h.9v-.9H6v.9zm-4.3 4.3h2.6V9.5H1.7v2.6zm.9-.9h.9v-.9h-.9v.9zm-.9-2.6h2.6V6H1.7v2.6zm.9-.8h.9v-.9h-.9v.9z"/></svg>