<svg id="Layer_1" xmlns="http://www.w3.org/2000/svg" viewBox="-25.5 137.5 465 519"><style>.st0{fill:url(#SVGID_1_)}.st1{fill:url(#SVGID_2_)}.st2{fill:url(#SVGID_3_)}</style><linearGradient id="SVGID_1_" gradientUnits="userSpaceOnUse" x1="195.751" y1="656.865" x2="195.751" y2="135.232"><stop offset="0" stop-color="#4dc3e4"/><stop offset="1" stop-color="#a1e9d9"/></linearGradient><path class="st0" d="M235.3 378.2L215.5 398c-5.5-1.6-11.5-1.6-16.9 0l-42.3-42.3c-5.8-5.8-15.2-5.8-21 0-2.8 2.8-4.3 6.5-4.3 10.5s1.5 7.7 4.3 10.5l42.3 42.3c-.8 2.7-1.2 5.6-1.2 8.5 0 16.9 13.8 30.7 30.7 30.7s30.7-13.8 30.7-30.7c0-2.9-.4-5.7-1.2-8.5l19.8-19.8c5.8-5.8 5.8-15.2 0-21-5.9-5.7-15.4-5.7-21.1 0zm-25.1 49.3c0 1.8-1.5 3.2-3.2 3.2-1.8 0-3.2-1.5-3.2-3.2s1.5-3.2 3.2-3.2c1.8 0 3.2 1.4 3.2 3.2z"/><linearGradient id="SVGID_2_" gradientUnits="userSpaceOnUse" x1="206.999" y1="656.502" x2="206.999" y2="134.869"><stop offset="0" stop-color="#4dc3e4"/><stop offset="1" stop-color="#a1e9d9"/></linearGradient><path class="st1" d="M345.7 254.8l9-12.8 48.7 34.1c2.5 1.8 5.5 2.7 8.5 2.7.9 0 1.7-.1 2.6-.2 3.9-.7 7.3-2.9 9.6-6.1 27.1-38.7 17.7-92.3-21.1-119.4-18.7-13.1-41.5-18.1-64.1-14.2-22.6 4-42.2 16.5-55.4 35.2-4.7 6.7-3.1 16 3.6 20.7l43.2 30.2-9 12.8c-34.5-20.9-74-31.9-114.4-31.9-40.4 0-79.9 11-114.4 31.9l-9-12.8 43.2-30.2c6.7-4.7 8.3-14 3.6-20.7-13.1-18.7-32.8-31.2-55.4-35.2-22.6-4-45.3 1-64.1 14.2-38.7 27.1-48.2 80.7-21.1 119.4 2.3 3.2 5.7 5.4 9.6 6.1.8.2 1.7.2 2.6.2 3.1 0 6-.9 8.5-2.7L59.3 242l9 12.8c-24.9 20-45.4 45.5-59.7 73.9-15.4 30.9-23.3 64.1-23.3 98.8 0 73.3 36 141.4 96.6 182.9L66 633.1c-4.7 6.7-3.1 16 3.6 20.7 2.5 1.8 5.5 2.7 8.5 2.7 4.8 0 9.4-2.4 12.2-6.3l17.2-24.6c30.7 15.4 64.9 23.6 99.4 23.6 34.4 0 68.7-8.1 99.4-23.6l17.2 24.6c2.8 4 7.3 6.3 12.2 6.3 3.1 0 6-.9 8.5-2.7 3.2-2.3 5.4-5.7 6.1-9.6.7-3.9-.2-7.8-2.5-11.1L332 610.4c60.6-41.5 96.6-109.6 96.6-182.9 0-34.7-7.8-67.9-23.3-98.8-14.1-28.4-34.7-53.9-59.6-73.9zM96 180.1l-88.6 62c-8.4-23.6-.1-50.2 20.6-64.8 9.5-6.6 20.5-10.1 32.1-10.1 13.3 0 25.9 4.5 35.9 12.9zm222 0c19.3-16 47.2-17.3 67.9-2.7 20.8 14.5 29.1 41.2 20.6 64.8L318 180.1zm80.9 247.4c0 105.8-86.1 191.9-191.9 191.9S15.1 533.3 15.1 427.5c0-105.8 86.1-191.9 191.9-191.9s191.9 86.1 191.9 191.9z"/><linearGradient id="SVGID_3_" gradientUnits="userSpaceOnUse" x1="207" y1="656.865" x2="207" y2="135.232"><stop offset="0" stop-color="#4dc3e4"/><stop offset="1" stop-color="#a1e9d9"/></linearGradient><path class="st2" d="M207 263.6c-90.4 0-163.9 73.5-163.9 163.9S116.6 591.4 207 591.4s163.9-73.5 163.9-163.9S297.4 263.6 207 263.6zm80.5 265.3l4.9 4.9c-20.4 16.4-44.6 26.5-70.6 29.3V556c0-8.2-6.7-14.8-14.8-14.8-8.2 0-14.8 6.7-14.8 14.8v7.1c-25.9-2.8-50.2-12.9-70.6-29.3l4.9-4.9c5.8-5.8 5.8-15.2 0-21-5.8-5.8-15.2-5.8-21 0l-4.9 4.9c-16.4-20.4-26.5-44.6-29.3-70.6h7.1c8.2 0 14.8-6.7 14.8-14.8s-6.7-14.8-14.8-14.8h-7.1c2.8-25.9 12.9-50.2 29.3-70.6l4.9 4.9c2.8 2.8 6.5 4.3 10.5 4.3s7.7-1.5 10.5-4.3c5.8-5.8 5.8-15.2 0-21l-4.9-4.9c20.4-16.4 44.6-26.5 70.6-29.3v7.1c0 8.2 6.7 14.8 14.8 14.8 8.2 0 14.8-6.7 14.8-14.8v-7.1c25.9 2.8 50.2 12.9 70.6 29.3l-4.9 4.9c-2.8 2.8-4.3 6.5-4.3 10.5s1.5 7.7 4.3 10.5 6.5 4.3 10.5 4.3 7.7-1.5 10.5-4.3l4.9-4.9c16.4 20.4 26.5 44.6 29.3 70.6h-7.1c-8.2 0-14.8 6.7-14.8 14.8s6.7 14.8 14.8 14.8h7.1c-2.8 25.9-12.9 50.2-29.3 70.6l-4.9-4.9c-5.8-5.8-15.2-5.8-21 0-5.8 5.8-5.8 15.3 0 21z"/></svg>