<svg xmlns="http://www.w3.org/2000/svg" width="24" height="24" viewBox="0 0 24 24"><path fill="none" d="M0 0h24v24H0z"/><path d="M3 20.89a1 1 0 0 1-1-1v-.026-5.922a1.052 1.052 0 0 1 2.1 0v4.948h15.789v-4.947a1.053 1.053 0 0 1 2.105 0V19.891a1 1 0 0 1-1 1zm8.425-4.754l-4.391-4.392a1 1 0 0 1 0-1.414l.037-.037a1 1 0 0 1 1.414 0l2.707 2.706v-9a1 1 0 0 1 1-1h.1a1 1 0 0 1 1 1v8.828l2.668-2.535a1.093 1.093 0 0 1 1.489 0 .965.965 0 0 1 0 1.414l-4.435 4.213a1 1 0 0 1-.142.179l-.037.037a1 1 0 0 1-1.415 0z" fill="#53c6ea"/></svg>