<svg xmlns="http://www.w3.org/2000/svg" width="18" height="18" viewBox="0 0 18 18"><defs><style>.a,.d{fill:none}.a{stroke:#53c6ea;stroke-width:2px}.b{fill:#53c6ea}.c{stroke:none}</style></defs><g class="a"><circle class="c" cx="9" cy="9" r="9"/><circle class="d" cx="9" cy="9" r="8"/></g><path class="b" d="M7.707 10.669v-.468a2.075 2.075 0 0 1 .259-1.056 3.4 3.4 0 0 1 .949-.955 3.97 3.97 0 0 0 .876-.772 1.117 1.117 0 0 0 .212-.664.719.719 0 0 0-.3-.626 1.448 1.448 0 0 0-.848-.215 4.867 4.867 0 0 0-2.163.62L6 5.147a6.026 6.026 0 0 1 2.992-.791 3.182 3.182 0 0 1 2.071.626 2.045 2.045 0 0 1 .768 1.67 2.221 2.221 0 0 1-.316 1.2 4.507 4.507 0 0 1-1.2 1.138 3.71 3.71 0 0 0-.768.683 1.061 1.061 0 0 0-.161.614v.379zm-.2 2.163a1.06 1.06 0 0 1 .285-.8 1.154 1.154 0 0 1 .829-.272 1.121 1.121 0 0 1 .81.279 1.058 1.058 0 0 1 .288.8 1.057 1.057 0 0 1-.291.787 1.1 1.1 0 0 1-.81.288 1.134 1.134 0 0 1-.822-.281 1.053 1.053 0 0 1-.291-.801z"/></svg>