<svg xmlns="http://www.w3.org/2000/svg" width="24" height="24.09" viewBox="0 0 24 24.09"><path fill="none" d="M0 .035h24v24H0z"/><g transform="translate(1 2.09)" fill="none" stroke="#b6bfce" stroke-width="2"><rect width="22" height="22" rx="2" stroke="none"/><rect x="1" y="1" width="20" height="20" rx="1"/></g><path fill="#b6bfce" d="M2.045 7.315H21.9v2.09H2.045z"/><g fill="none" stroke="#b6bfce"><path stroke="none" d="M4.553 10.83h4.18v4.18h-4.18z"/><path d="M5.053 11.33h3.18v3.18h-3.18z"/></g><g fill="none" stroke="#b6bfce"><path stroke="none" d="M4.553 16.245h4.18v4.18h-4.18z"/><path d="M5.053 16.745h3.18v3.18h-3.18z"/></g><g fill="none" stroke="#b6bfce"><path stroke="none" d="M9.883 10.83h4.18v4.18h-4.18z"/><path d="M10.383 11.33h3.18v3.18h-3.18z"/></g><g fill="none" stroke="#b6bfce"><path stroke="none" d="M9.883 16.245h4.18v4.18h-4.18z"/><path d="M10.383 16.745h3.18v3.18h-3.18z"/></g><g fill="none" stroke="#b6bfce"><path stroke="none" d="M15.212 10.83h4.18v4.18h-4.18z"/><path d="M15.712 11.33h3.18v3.18h-3.18z"/></g><g fill="none" stroke="#b6bfce"><path stroke="none" d="M15.212 16.245h4.18v4.18h-4.18z"/><path d="M15.712 16.745h3.18v3.18h-3.18z"/></g><path fill="#b6bfce" d="M6.415 0h2v6h-2zM15.44 0h2v6h-2z"/></svg>