<svg id="Layer_1" xmlns="http://www.w3.org/2000/svg" viewBox="0 0 64 36"><style>.st0{fill:url(#SVGID_1_)}.st1{fill:url(#SVGID_2_)}</style><linearGradient id="SVGID_1_" gradientUnits="userSpaceOnUse" x1="-2.756" y1="19.85" x2="83.552" y2="19.85" gradientTransform="matrix(1 0 0 -1 0 38)"><stop offset="0" stop-color="#4dc3e4"/><stop offset="1" stop-color="#a1e9d9"/></linearGradient><path class="st0" d="M28.5 29.1h-3.9V36h-9.5v-6.9H.9V22L15.7.3h8.9v21.6h3.9v7.2zm-13.4-7.2v-4.2c0-.8 0-1.8.1-3.2.1-1.3.1-2 .1-2.1H15c-.6 1.3-1.2 2.4-1.9 3.5l-4 5.9 6 .1z"/><linearGradient id="SVGID_2_" gradientUnits="userSpaceOnUse" x1="-2.756" y1="19.85" x2="83.552" y2="19.85" gradientTransform="matrix(1 0 0 -1 0 38)"><stop offset="0" stop-color="#4dc3e4"/><stop offset="1" stop-color="#a1e9d9"/></linearGradient><path class="st1" d="M63.5 17.4c0 6-1.6 10.5-4.9 13.8-3.3 3.2-7.9 4.8-13.8 4.8H33.2V.3h12.4c5.7 0 10.2 1.5 13.3 4.4 3 2.9 4.6 7.2 4.6 12.7zm-10.1.3c0-3.3-.6-5.7-1.9-7.3C50.2 8.8 48.2 8 45.6 8h-2.8v20h2.1c2.9 0 5.1-.9 6.4-2.6 1.5-1.6 2.1-4.2 2.1-7.7z"/></svg>